# xmcd CD database file
#
# Track frame offsets:
#	150
#	7148
#	14800
#	30809
#	43740
#	54145
#	66607
#	76129
#	91885
#	101392
#
# Disc length: 1535 seconds
#
# Revision: 1
# Processed by: cddbd v1.5.1PL0 Copyright (c) Steve Scherf et al.
# Submitted via: CDex 1.51
#
DISCID=7305fd0a
DTITLE=Tony Bennet - Vocal Jazz
DYEAR=1900
DGENRE=Jazz
TTITLE0=With Plenty of Money and You
TTITLE1=I Guess I'll Have to Change my Plans
TTITLE2=Growing Pains
TTITLE3=Life is a Song
TTITLE4=Anything goes
TTITLE5=Are you Havin'a any Fun?
TTITLE6=Jeepers Creepers
TTITLE7=Poor Little Rich Girl
TTITLE8=Chicago (That Toddling Town)
TTITLE9=I've Grown Accostumed to her Face
EXTD=
EXTT0=
EXTT1=
EXTT2=
EXTT3=
EXTT4=
EXTT5=
EXTT6=
EXTT7=
EXTT8=
EXTT9=
PLAYORDER=
